<svg width="102" height="48" viewBox="0 0 102 48" fill="none" xmlns="http://www.w3.org/2000/svg">
<path fill-rule="evenodd" clip-rule="evenodd" d="M17.8173 0.519856L29.6533 7.38364C30.3273 7.77248 30.7316 8.46562 30.7316 9.25174C30.7316 10.0379 30.3273 10.7395 29.6533 11.1283L18.2385 17.7469L25.9298 22.2101C26.6038 22.6074 27.0081 23.309 27.0081 24.0866C27.0081 24.8728 26.6038 25.5744 25.9298 25.9632L17.1012 31.0772V45.8276C17.1012 46.6137 16.6969 47.3153 16.0229 47.7041C15.6859 47.8986 15.3153 48 14.9446 48C14.5739 48 14.2033 47.8986 13.8663 47.7041L2.10606 40.8911C1.43212 40.4938 1.02776 39.7922 1.02776 39.0145C1.02776 38.2284 1.43212 37.5268 2.10606 37.138L14.8351 29.7586V19.3699C14.8351 19.0571 14.8772 18.7528 14.9446 18.457L12.8301 17.2313C12.3752 16.9693 11.8024 16.9693 11.3475 17.2313L3.23491 21.9311C2.56097 22.32 1.75224 22.32 1.0783 21.9311C0.404364 21.5339 0 20.8407 0 20.0546V10.8747C0 9.47152 0.749758 8.16976 1.96285 7.46817L13.9506 0.519856C15.1468 -0.173285 16.621 -0.173285 17.8173 0.519856ZM3.39497 39.0145L14.8351 45.6501V32.3874L3.39497 39.0145ZM17.1012 28.4568L24.6409 24.0866L17.1012 19.708V28.4568ZM16.0735 16.4959C16.2925 16.293 16.5368 16.1071 16.7979 15.9549L28.3644 9.26019L16.68 2.48939C16.4357 2.34569 16.1577 2.27807 15.8797 2.27807C15.6017 2.27807 15.3237 2.34569 15.0794 2.48939L3.10012 9.42925C2.58624 9.7251 2.26612 10.283 2.26612 10.8747V19.8771L10.2186 15.2702C11.3727 14.6025 12.8049 14.6025 13.959 15.2702L16.0735 16.4959Z" fill="white"/>
<path d="M53.8393 19.3528H44.5642C44.4884 19.3528 44.4295 19.2937 44.4295 19.2176V18.068C44.4295 16.6901 45.3056 15.8364 46.6534 15.8364H48.8943C48.9701 15.8364 49.0291 15.7772 49.0291 15.7012V12.7088C49.0291 12.6327 48.9701 12.5736 48.8943 12.5736H46.2154C42.8036 12.5736 40.5796 14.6783 40.5796 17.882V19.226C40.5796 19.3021 40.5206 19.3613 40.4448 19.3613H37.6142C37.5384 19.3613 37.4794 19.4204 37.4794 19.4965V22.4551C37.4794 22.5311 37.5384 22.5903 37.6142 22.5903H40.4448C40.5206 22.5903 40.5796 22.6495 40.5796 22.7255V35.0499C40.5796 35.126 40.6385 35.1852 40.7144 35.1852H44.2947C44.3705 35.1852 44.4295 35.126 44.4295 35.0499V22.7255C44.4295 22.6495 44.4884 22.5903 44.5642 22.5903H50.0231C50.099 22.5903 50.1579 22.6495 50.1579 22.7255V35.0499C50.1579 35.126 50.2169 35.1852 50.2927 35.1852H53.8393C53.9152 35.1852 53.9741 35.126 53.9741 35.0499V19.4965C53.9741 19.412 53.9152 19.3528 53.8393 19.3528Z" fill="white"/>
<path fill-rule="evenodd" clip-rule="evenodd" d="M92.8605 19.0993C88.0418 19.0993 84.5963 22.5565 84.5963 27.2648C84.5963 31.9731 88.0418 35.4303 92.8605 35.4303C97.6454 35.4303 101.091 31.9731 101.091 27.2648C101.091 22.5565 97.6454 19.0993 92.8605 19.0993ZM92.8605 32.0999C90.2321 32.0999 88.4799 30.1219 88.4799 27.2648C88.4799 24.4077 90.2321 22.4297 92.8605 22.4297C95.4551 22.4297 97.2074 24.4077 97.2074 27.2648C97.2074 30.1219 95.4551 32.0999 92.8605 32.0999Z" fill="white"/>
<path d="M61.2864 21.8042C62.1625 20.0713 63.94 19.0993 66.1977 19.0993C69.7611 19.0993 72.0778 21.6774 72.0778 25.3798V35.0415C72.0778 35.1176 72.0188 35.1767 71.943 35.1767H68.3711C68.2953 35.1767 68.2364 35.1176 68.2364 35.0415V26.1997C68.2364 24.0273 66.9222 22.5227 64.9509 22.5227C62.7859 22.5227 61.2864 24.2217 61.2864 26.5463V35.0415C61.2864 35.1176 61.2274 35.1767 61.1516 35.1767H57.5713C57.4955 35.1767 57.4365 35.1176 57.4365 35.0415V19.4881C57.4365 19.412 57.4955 19.3528 57.5713 19.3528H60.9073C60.9831 19.3528 61.0421 19.412 61.0421 19.4881V21.8042H61.2864Z" fill="white"/>
<path d="M84.0571 19.3528H79.9461C79.8703 19.3528 79.8113 19.2937 79.8113 19.2176V14.7122C79.8113 14.6361 79.7524 14.5769 79.6765 14.5769H79.6091C79.5839 14.5769 79.5586 14.5854 79.5417 14.5938L76.0288 16.631C75.9867 16.6563 75.9614 16.6986 75.9614 16.7493V19.2176C75.9614 19.2937 75.9025 19.3528 75.8267 19.3528H72.9961C72.9203 19.3528 72.8613 19.412 72.8613 19.4881V22.4466C72.8613 22.5227 72.9203 22.5819 72.9961 22.5819H75.8267C75.9025 22.5819 75.9614 22.641 75.9614 22.7171V29.6485C75.9614 33.1649 78.2191 35.1767 81.6562 35.1767H84.0571C84.133 35.1767 84.1919 35.1176 84.1919 35.0415V32.0491C84.1919 31.9731 84.133 31.9139 84.0571 31.9139H82.0943C80.6537 31.9139 79.8113 31.094 79.8113 29.4964V22.7256C79.8113 22.6495 79.8703 22.5903 79.9461 22.5903H84.0571C84.133 22.5903 84.1919 22.5311 84.1919 22.4551V19.4965C84.1919 19.412 84.133 19.3528 84.0571 19.3528Z" fill="white"/>
</svg>
